<svg xmlns="http://www.w3.org/2000/svg" viewBox="0 0 24 24">
  <g clip-path="url(#magnifierMask)">
    <path
      d="M1.4 24.1l-.6-.3a1.7 1.7 0 01-.3-2.7l5-5 .7-.6a1.8 1.8 0 012.2-.4l1-1c.3-.3.5-.3.9 0a7.6 7.6 0 005.5 2.1A7.6 7.6 0 0022 4.3a7.7 7.7 0 00-13 8 .4.4 0 01-.3.6.4.4 0 01-.6-.2L7.4 11a8.5 8.5 0 112.6 4h-.1l-.9.7.2 1a1.5 1.5 0 01-.5 1.1c-1.9 2-3.8 4-5.8 5.8l-.8.5h-.7zm.5-.9c.2 0 .4-.1.5-.3L8 17.3l.2-.1a.9.9 0 000-1.2.9.9 0 00-1.4 0c-1.8 2-3.7 3.8-5.5 5.6l-.2.2a.8.8 0 00-.1 1 .9.9 0 00.9.4z"
    />
    <path
      d="M9.4 8.7a6.2 6.2 0 015.2-6.3 6 6 0 016 2.5.5.5 0 01-.1.5c-.2.2-.5.1-.7-.1a5.3 5.3 0 00-4.8-2 5.4 5.4 0 00-3.9 8.2A5.4 5.4 0 0020.7 7a.4.4 0 01.4-.6c.3 0 .4.2.4.4a6 6 0 01-.3 4.6 6 6 0 01-5 3.4 6.2 6.2 0 01-6.7-5.1l-.1-1z"
    />
  </g>
  <defs>
    <clipPath id="magnifierMask"><path d="M0 0h24v24H0z" /></clipPath>
  </defs>
</svg>
